<svg xmlns="http://www.w3.org/2000/svg" xmlns:xlink="http://www.w3.org/1999/xlink" width="2000" zoomAndPan="magnify" viewBox="0 0 1500 1499.999933" height="2000" preserveAspectRatio="xMidYMid meet" version="1.0"><defs><clipPath id="df9962a92c"><path d="M 80.636719 80.636719 L 1419.363281 80.636719 L 1419.363281 1419.363281 L 80.636719 1419.363281 Z M 80.636719 80.636719 " clip-rule="nonzero"/></clipPath><clipPath id="576afc9dba"><path d="M 750 80.636719 C 380.320312 80.636719 80.636719 380.320312 80.636719 750 C 80.636719 1119.679688 380.320312 1419.363281 750 1419.363281 C 1119.679688 1419.363281 1419.363281 1119.679688 1419.363281 750 C 1419.363281 380.320312 1119.679688 80.636719 750 80.636719 Z M 750 80.636719 " clip-rule="nonzero"/></clipPath><clipPath id="b2ac1950ae"><path d="M 0.636719 0.636719 L 1339.363281 0.636719 L 1339.363281 1339.363281 L 0.636719 1339.363281 Z M 0.636719 0.636719 " clip-rule="nonzero"/></clipPath><clipPath id="92e5dfb3f8"><path d="M 670 0.636719 C 300.320312 0.636719 0.636719 300.320312 0.636719 670 C 0.636719 1039.679688 300.320312 1339.363281 670 1339.363281 C 1039.679688 1339.363281 1339.363281 1039.679688 1339.363281 670 C 1339.363281 300.320312 1039.679688 0.636719 670 0.636719 Z M 670 0.636719 " clip-rule="nonzero"/></clipPath><clipPath id="05ec9bd0e0"><rect x="0" width="1340" y="0" height="1340"/></clipPath><clipPath id="1efd985691"><path d="M 216 388.785156 L 1283.855469 388.785156 L 1283.855469 1109 L 216 1109 Z M 216 388.785156 " clip-rule="nonzero"/></clipPath></defs><rect x="-150" width="1800" fill="#ffffff" y="-149.999993" height="1799.99992" fill-opacity="1"/><rect x="-150" width="1800" fill="#ffffff" y="-149.999993" height="1799.99992" fill-opacity="1"/><g clip-path="url(#df9962a92c)"><g clip-path="url(#576afc9dba)"><g transform="matrix(1, 0, 0, 1, 80, 80)"><g clip-path="url(#05ec9bd0e0)"><g clip-path="url(#b2ac1950ae)"><g clip-path="url(#92e5dfb3f8)"><path fill="#2b2825" d="M 0.636719 0.636719 L 1339.363281 0.636719 L 1339.363281 1339.363281 L 0.636719 1339.363281 Z M 0.636719 0.636719 " fill-opacity="1" fill-rule="nonzero"/></g></g></g></g></g></g><g clip-path="url(#1efd985691)"><path fill="#d2714e" d="M 480.925781 579.421875 L 480.925781 674.726562 C 480.925781 727.039062 523.914062 770.027344 576.226562 770.027344 L 923.769531 770.027344 C 976.082031 770.027344 1019.070312 727.039062 1019.070312 674.726562 L 1019.070312 484.121094 C 1019.070312 431.808594 976.082031 388.820312 923.769531 388.820312 L 576.226562 388.820312 C 523.914062 388.820312 480.925781 431.808594 480.925781 484.121094 Z M 1283.269531 538.839844 L 1070.097656 538.839844 L 1070.097656 674.726562 C 1070.097656 755.203125 1004.246094 821.054688 923.769531 821.054688 L 576.226562 821.054688 C 495.75 821.054688 429.898438 755.203125 429.898438 674.726562 L 429.898438 538.839844 L 216.726562 538.839844 L 216.726562 777.539062 C 216.726562 893.957031 301.191406 991.566406 411.84375 1012.1875 L 387.433594 1061.269531 C 382.296875 1071.613281 386.542969 1084.296875 396.890625 1089.4375 L 430.160156 1105.972656 C 440.503906 1111.113281 453.1875 1106.863281 458.328125 1096.519531 L 498.285156 1016.207031 L 1001.710938 1016.207031 L 1041.667969 1096.519531 C 1046.808594 1106.863281 1059.492188 1111.113281 1069.835938 1105.972656 L 1103.105469 1089.4375 C 1113.449219 1084.296875 1117.699219 1071.613281 1112.5625 1061.269531 L 1088.152344 1012.1875 C 1198.804688 991.566406 1283.269531 893.925781 1283.269531 777.539062 Z M 1283.269531 538.839844 " fill-opacity="1" fill-rule="evenodd"/></g></svg>